<?xml version="1.0" standalone="no"?><!DOCTYPE svg PUBLIC "-//W3C//DTD SVG 1.1//EN" "http://www.w3.org/Graphics/SVG/1.1/DTD/svg11.dtd"><svg t="1780639728022" class="icon" viewBox="-52.34 -52.34 1128.68 1128.68" version="1.1" xmlns="http://www.w3.org/2000/svg" p-id="11312" xmlns:xlink="http://www.w3.org/1999/xlink"><path d="M512 113.778c219.97 0 398.222 178.252 398.222 398.222S731.97 910.222 512 910.222 113.778 731.97 113.778 512 292.03 113.778 512 113.778m0-56.89C260.74 56.889 56.889 260.742 56.889 512S260.74 967.111 512 967.111 967.111 763.26 967.111 512 763.26 56.889 512 56.889z" p-id="11313"></path><path d="M511.052 967.111c-91.97 0-184.889-91.97-204.8-201.955-21.808-123.26 51.2-227.556 196.267-279.704 118.518-42.667 177.303-121.363 160.237-216.178C648.533 185.837 578.37 113.778 512 113.778v-56.89c94.815 0 187.733 91.023 206.696 201.956 21.808 123.26-52.148 227.556-197.215 279.704-118.518 42.667-177.303 121.363-160.237 216.178 15.17 83.437 84.386 155.496 149.808 155.496H512l0.948 56.89h-1.896z" p-id="11314"></path><path d="M449.422 379.26c-47.407 0-85.333-37.927-85.333-85.334s37.926-85.333 85.333-85.333 85.334 37.926 85.334 85.333-37.926 85.333-85.334 85.333z m0-113.779c-16.118 0-28.444 12.326-28.444 28.445s12.326 28.444 28.444 28.444 28.445-12.326 28.445-28.444c0-15.17-12.326-28.445-28.445-28.445z m119.467 558.46c-47.408 0-85.333-37.926-85.333-85.334s37.925-85.333 85.333-85.333 85.333 37.926 85.333 85.333-37.926 85.334-85.333 85.334z m0-113.778c-16.119 0-28.445 12.326-28.445 28.444s12.326 28.445 28.445 28.445 28.444-12.326 28.444-28.445-12.326-28.444-28.444-28.444z" p-id="11315"></path></svg>