<?xml version="1.0" standalone="no"?><!DOCTYPE svg PUBLIC "-//W3C//DTD SVG 1.1//EN" "http://www.w3.org/Graphics/SVG/1.1/DTD/svg11.dtd"><svg t="1781763211449" class="icon" viewBox="0 0 1024 1024" version="1.1" xmlns="http://www.w3.org/2000/svg" p-id="13842" xmlns:xlink="http://www.w3.org/1999/xlink" width="200" height="200"><path d="M1009.371429 487.619048c-9.752381-24.380952-29.257143-48.761905-53.638096-65.828572-2.438095-107.27619-39.009524-204.8-104.838095-280.380952C770.438095 51.2 650.971429 0 514.438095 0 375.466667 0 258.438095 48.761905 177.980952 136.533333 109.714286 212.114286 73.142857 309.638095 70.704762 419.352381c-24.380952 17.066667-43.885714 41.447619-56.076191 65.828571-19.504762 51.2-14.628571 114.590476 19.504762 170.666667 17.066667 29.257143 43.885714 53.638095 70.704762 68.266667C168.228571 894.780952 314.514286 1024 512 1024c199.92381 0 343.771429-129.219048 404.72381-299.885714 26.819048-17.066667 53.638095-39.009524 70.704761-68.266667 36.571429-56.07619 41.447619-119.466667 21.942858-168.228571z m-80.457143 129.219047c-14.628571 24.380952-39.009524 43.885714-68.266667 56.076191-48.761905 163.352381-175.542857 277.942857-346.209524 277.942857C341.333333 950.857143 212.114286 836.266667 165.790476 672.914286c-29.257143-12.190476-53.638095-31.695238-68.266666-56.076191-36.571429-60.952381-19.504762-121.904762 17.066666-138.971428 9.752381-4.87619 19.504762-4.87619 31.695238-2.438096-2.438095-24.380952-2.438095-48.761905 0-73.142857C156.038095 204.8 299.885714 73.142857 514.438095 73.142857c212.114286 0 358.4 141.409524 368.152381 331.580953 2.438095 24.380952 0 48.761905-2.438095 73.142857 12.190476-2.438095 21.942857 0 31.695238 2.438095 36.571429 17.066667 53.638095 78.019048 17.066667 136.533333z" fill="#44454F" p-id="13843"></path></svg>