<?xml version="1.0" standalone="no"?><!DOCTYPE svg PUBLIC "-//W3C//DTD SVG 1.1//EN" "http://www.w3.org/Graphics/SVG/1.1/DTD/svg11.dtd"><svg t="1781675304856" class="icon" viewBox="0 0 1024 1024" version="1.1" xmlns="http://www.w3.org/2000/svg" p-id="24559" xmlns:xlink="http://www.w3.org/1999/xlink" width="200" height="200"><path d="M712.289487 235.124685c-7.534724-1.032154-15.172664-0.516077-22.500958 1.651446-1.754662-20.849511-6.192924-38.60256-13.211571-52.74307-10.424756-21.159157-26.319927-33.751436-47.272654-37.467191-15.172664-3.406108-31.067836-1.032154-44.485838 6.399355-2.373954-17.856264-9.289386-34.680375-20.333434-49.027316l-0.206431-0.20643c-10.734402-12.282633-26.319927-19.094849-42.627961-18.785203-18.578772-0.516077-36.435037 6.915432-49.130531 20.333434l-0.206431 0.206431c-12.282633 15.069449-20.023788 32.925713-22.500958 52.123777-9.186171-4.335047-19.30128-6.709001-29.519604-6.915432h-3.096462c-17.546618-0.516077-34.473944 6.605786-46.550147 19.404496-22.191311 23.945973-21.881665 62.445318-21.262372 73.695797v0.206431l10.424755 304.175788-6.089708-2.993246C340.404395 472.623324 292.202802 373.639754 235.434331 373.639754c-17.030541 0.309646-33.235359 8.670094-43.453684 22.294527-37.054329 44.279407-14.346941 86.391291 9.702248 130.980345l0.103215 0.103215c19.30128 32.512852 33.132144 67.606088 41.286161 104.557202 8.154017 43.660115 30.654974 88.352384 66.986796 132.941437 27.868158 34.267513 56.56204 59.03921 68.947888 69.257535v105.176494l302.524342-10.218325-5.16077-76.895474c104.350771-85.462353 78.650136-292.512448 74.831166-318.935591 3.406108-24.358835 23.945973-176.085475 24.565266-201.476464 0.619292-24.255619 2.167523-88.868461-63.477472-96.29997z m3.199677 300.150388l0.103216 0.309646c0.103215 0.516077 8.566878 56.458825 3.922185 121.484528-4.128616 57.90384-20.023788 134.799315-71.83792 171.853644l-8.154016 5.676847 4.0254 59.864933-229.138191 7.741155V816.433827l-7.018648-5.470416c-1.135369-0.825723-110.543695-84.533414-129.432113-185.994154v-0.103215c-8.670094-40.460437-23.636327-79.062998-44.589054-114.775527-25.59742-47.479085-33.44179-67.606088-13.314787-91.448846l0.206431-0.309646c3.509324-5.16077 9.082955-8.463663 15.379095-9.186171 27.042435 0.309646 72.973289 73.489366 84.84306 151.004133l1.3418 9.082955 58.626349 29.313174c12.076202 6.709001 23.842758 14.037295 34.886805 21.984881 12.385848 8.670094 24.152404 18.372341 34.990022 28.900312 2.47717 2.373954 6.192924 2.580385 8.773309 0.309647s3.096462-5.883278 1.135369-8.77331c-9.186171-13.108356-19.507711-25.59742-30.75819-37.054329-10.32154-10.734402-21.468804-21.055942-33.028928-30.654974L385.199879 242.556194v-0.206431c-0.722508-8.360448-0.103215-34.990021 11.66334-47.788731 5.676847-5.780062 13.624433-8.670094 21.77845-7.947586h0.206431c16.514464 0.619292 26.113497 7.431509 29.313174 20.746296 0.722508 8.566878 1.445016 13.934079 1.548231 14.243725l0.206431 1.238585 20.127003 207.875819c0.309646 3.509324 3.199677 6.089709 6.915432 5.986493 3.612539-0.206431 6.29614-2.993247 6.29614-6.50257l1.857877-216.649128h-0.412862c-0.206431-3.509324-0.619292-7.018647-1.3418-10.424756-1.135369-16.514464-1.857877-56.149179 14.759802-74.108658 6.089709-6.192924 14.553372-9.392602 23.12025-8.773309h0.412862c6.089709-0.309646 11.869771 2.167523 15.895172 6.915432 11.972987 13.521218 14.966233 46.343715 12.79871 74.418304h-0.928939l0.206431 7.328294-0.103215 0.516077v7.121863h0.309646l6.192924 211.591573c0.103215 3.612539 2.890031 6.29614 6.50257 6.399355 3.509324 0.103215 6.50257-2.580385 6.709001-6.192924L584.199173 217.990928h0.309647l0.516077-3.509323c0.928939-6.089709 4.128616-21.159157 14.656587-28.797097 6.089709-4.438262 14.037295-5.883278 23.533111-4.128616 34.886806 6.089709 32.512852 75.037597 31.067836 95.1646h-0.309646v3.81897l-0.516077 161.325673c0 3.509324 2.580385 6.399355 6.089709 6.605785 3.509324 0.206431 6.50257-2.167523 7.018647-5.676847l22.810604-158.951718 0.103215-0.516077c0.825723-3.922185 2.993247-7.328294 6.192924-9.805464 3.509324-2.6836 8.050801-3.81897 12.489064-3.302892h0.103215c18.681988 2.167523 32.925713 7.947586 31.893559 60.38101-0.309646 15.172664-8.773309 84.223768-24.565265 199.618586v0.309647l-0.103216 4.747908z" fill="#333333" p-id="24560"></path><path d="M656.55317 548.383429c-18.578772-15.895172-39.841145-27.558512-63.167826-34.886806-22.707388-6.915432-46.2405-10.424756-69.876827-10.218324-23.533112-0.309646-46.859792 3.509324-69.051103 11.353694l-17.030542 5.986493 17.95948 1.961093c43.144038 4.747908 86.081645 13.211571 127.677452 25.184558 19.714142 6.089709 38.705776 14.450156 56.458825 24.771696 18.062695 11.147263 34.78359 24.46205 49.646608 39.634714l11.972987 12.282633-5.057555-16.308033c-7.225078-23.429896-20.849511-44.072977-39.531499-59.761718z" fill="#333333" p-id="24561"></path></svg>