<?xml version="1.0" standalone="no"?><!DOCTYPE svg PUBLIC "-//W3C//DTD SVG 1.1//EN" "http://www.w3.org/Graphics/SVG/1.1/DTD/svg11.dtd"><svg t="1780983325940" class="icon" viewBox="0 0 1024 1024" version="1.1" xmlns="http://www.w3.org/2000/svg" p-id="11737" xmlns:xlink="http://www.w3.org/1999/xlink" width="200" height="200"><path d="M325.818182 232.727273h-93.090909a46.545455 46.545455 0 0 0-46.545455 46.545454v54.303031h139.636364V232.727273z m31.030303 0v100.848485h310.30303V232.727273H356.848485z m341.333333 0v100.848485h139.636364V279.272727a46.545455 46.545455 0 0 0-46.545455-46.545454h-93.090909z m139.636364 131.878788H186.181818V775.757576a46.545455 46.545455 0 0 0 46.545455 46.545454h558.545454a46.545455 46.545455 0 0 0 46.545455-46.545454V364.606061zM232.727273 201.69697h558.545454a77.575758 77.575758 0 0 1 77.575758 77.575757v496.484849a77.575758 77.575758 0 0 1-77.575758 77.575757H232.727273a77.575758 77.575758 0 0 1-77.575758-77.575757V279.272727a77.575758 77.575758 0 0 1 77.575758-77.575757z m356.848485 294.787878h106.201212v155.151516H589.575758V496.484848z" fill="#9B9B9B" p-id="11738"></path></svg>