<?xml version="1.0" standalone="no"?><!DOCTYPE svg PUBLIC "-//W3C//DTD SVG 1.1//EN" "http://www.w3.org/Graphics/SVG/1.1/DTD/svg11.dtd"><svg t="1780639039735" class="icon" viewBox="-74.15 -86.87 1189.51 1189.51" version="1.1" xmlns="http://www.w3.org/2000/svg" p-id="6216" xmlns:xlink="http://www.w3.org/1999/xlink"><path d="M610.6112 86.9376A422.30784 422.30784 0 0 0 465.7152 61.44C231.5264 61.44 40.96 252.0064 40.96 486.1952c0 21.0944 1.536 41.7792 4.5056 61.952C63.0784 774.8608 270.2336 954.368 522.24 954.368c263.5776 0 478.0032-196.3008 478.0032-437.4528 0-213.7088-168.1408-391.9872-389.632-429.9776zM522.24 914.944c-21.0944 0-41.8816-1.4336-62.1568-3.9936 1.8432 0 3.7888 0.1024 5.632 0.1024 234.1888 0 424.7552-190.5664 424.7552-424.7552 0-117.0432-47.616-223.232-124.5184-300.1344 117.3504 71.4752 194.8672 193.1264 194.8672 330.752 0 219.4432-196.7104 398.0288-438.5792 398.0288z m-56.5248-814.08c3.9936 0 7.9872 0.1024 11.9808 0.2048 43.008 1.3312 84.1728 9.728 122.5728 24.064 146.3296 54.6816 250.88 195.8912 250.88 361.1648 0 212.48-172.8512 385.4336-385.4336 385.4336-192.8192 0-353.0752-142.336-381.0304-327.5776-2.8672-18.8416-4.3008-38.1952-4.3008-57.856 0-60.0064 13.824-116.9408 38.4-167.6288C181.248 189.8496 313.2416 100.864 465.7152 100.864z" p-id="6217"></path><path d="M465.7152 820.9408c184.6272 0 334.7456-150.2208 334.7456-334.7456S650.3424 151.4496 465.7152 151.4496 130.9696 301.6704 130.9696 486.1952s150.2208 334.7456 334.7456 334.7456z m0-630.0672c162.9184 0 295.424 132.5056 295.424 295.424 0 162.9184-132.5056 295.424-295.424 295.424-162.9184 0-295.424-132.5056-295.424-295.424 0.1024-162.9184 132.608-295.424 295.424-295.424z" p-id="6218"></path><path d="M304.64 647.3728l13.9264 13.9264c24.8832-24.8832 82.7392-41.0624 147.2512-41.0624 64.512 0 122.2656 16.0768 147.2512 41.0624l13.9264-13.9264 13.9264-13.9264c-24.8832-24.8832-41.0624-82.7392-41.0624-147.2512 0-64.512 16.0768-122.2656 41.0624-147.2512l-13.9264-13.9264-13.9264-13.9264c-24.8832 24.8832-82.7392 41.0624-147.2512 41.0624-64.512 0-122.2656-16.0768-147.2512-41.0624l-13.9264 13.9264-13.9264 13.9264c24.8832 24.8832 41.0624 82.7392 41.0624 147.2512 0 64.512-16.0768 122.2656-41.0624 147.2512l13.9264 13.9264z m50.3808-271.872c31.4368 10.3424 69.4272 16.0768 110.6944 16.0768s79.2576-5.7344 110.6944-16.0768c-10.3424 31.4368-16.0768 69.4272-16.0768 110.6944s5.7344 79.2576 16.0768 110.6944c-31.4368-10.3424-69.4272-16.0768-110.6944-16.0768s-79.2576 5.7344-110.6944 16.0768c10.3424-31.4368 16.0768-69.4272 16.0768-110.6944s-5.7344-79.2576-16.0768-110.6944z" p-id="6219"></path><path d="M555.7248 396.1856H375.7056v180.0192h180.0192V396.1856z m-39.3216 140.6976h-101.2736v-101.2736h101.2736v101.2736z" p-id="6220"></path></svg>