<svg viewBox="0 0 1024 1024" xmlns="http://www.w3.org/2000/svg">
  <!-- 筒身：单一轮廓，左右等宽 -->
  <path fill="#000" fill-rule="evenodd" d="M252 392a36 36 0 0 1 36-36h448a36 36 0 0 1 36 36v488a36 36 0 0 1-36 36H288a36 36 0 0 1-36-36V392zm52 52a8 8 0 0 0-8 8v368a8 8 0 0 0 8 8h416a8 8 0 0 0 8-8V452a8 8 0 0 0-8-8H304z"/>
  <!-- 筒口横线：仅顶部内沿，不额外加宽侧壁 -->
  <path fill="#000" fill-rule="evenodd" d="M304 372h416v20H304v-20zm52 8h312v4H356v-4z"/>
  <!-- 签条 -->
  <path fill="#000" fill-rule="evenodd" d="M316 120h36v208h-36V120zm10 10h16v188h-16V130z"/>
  <path fill="#000" fill-rule="evenodd" d="M494 72h36v256h-36V72zm10 10h16v236h-16V82z"/>
  <path fill="#000" fill-rule="evenodd" d="M672 120h36v208h-36V120zm10 10h16v188h-16V130z"/>
  <!-- 箍纹 -->
  <path fill="#000" fill-rule="evenodd" d="M320 568h384v32H320v-32zm12 12h360v8H332v-8zm0 112h384v32H320v-32zm12 12h360v8H332v-8z"/>
</svg>
