<?xml version="1.0" standalone="no"?><!DOCTYPE svg PUBLIC "-//W3C//DTD SVG 1.1//EN" "http://www.w3.org/Graphics/SVG/1.1/DTD/svg11.dtd"><svg t="1780639888036" class="icon" viewBox="-123.14 -123.65 1271.00 1271.00" version="1.1" xmlns="http://www.w3.org/2000/svg" p-id="14590" xmlns:xlink="http://www.w3.org/1999/xlink"><path d="M512.15873 266.412698a245.587302 245.587302 0 1 0 245.587302 245.587302 246.984127 246.984127 0 0 0-245.587302-245.587302z m0 427.111112a181.52381 181.52381 0 1 1 181.52381-181.52381 181.333333 181.333333 0 0 1-181.52381 181.52381z" p-id="14591"></path><path d="M995.460317 597.015873a98.603175 98.603175 0 0 1-46.984127-85.015873 101.587302 101.587302 0 0 1 46.984127-85.015873 56.253968 56.253968 0 0 0 22.349207-62.666667 571.428571 571.428571 0 0 0-44.444445-107.428571 54.222222 54.222222 0 0 0-60.444444-26.857143 99.555556 99.555556 0 0 1-118.603175-118.603175 60.634921 60.634921 0 0 0-26.857143-60.444444 496.380952 496.380952 0 0 0-107.428571-44.444444 57.142857 57.142857 0 0 0-62.666667 22.349206 98.603175 98.603175 0 0 1-85.015873 46.984127 101.587302 101.587302 0 0 1-85.015873-46.984127 56.253968 56.253968 0 0 0-62.666666-22.349206 571.428571 571.428571 0 0 0-107.428572 44.444444 54.222222 54.222222 0 0 0-26.857143 60.444444A97.904762 97.904762 0 0 1 203.52381 203.174603a99.619048 99.619048 0 0 1-91.746032 26.857143 60.634921 60.634921 0 0 0-60.444445 26.857143 496.380952 496.380952 0 0 0-44.444444 107.428571 57.142857 57.142857 0 0 0 22.349206 62.666667 98.603175 98.603175 0 0 1 46.984127 85.015873 101.587302 101.587302 0 0 1-46.984127 85.015873 56.253968 56.253968 0 0 0-22.349206 62.666667 571.428571 571.428571 0 0 0 44.444444 107.428571 57.142857 57.142857 0 0 0 60.444445 26.857143 97.904762 97.904762 0 0 1 91.746032 26.857143 99.619048 99.619048 0 0 1 26.857142 91.746032 60.634921 60.634921 0 0 0 26.857143 60.444444 496.31746 496.31746 0 0 0 107.428572 44.444444 57.142857 57.142857 0 0 0 62.666666-22.349206 98.603175 98.603175 0 0 1 85.015873-46.984127 101.587302 101.587302 0 0 1 85.015873 46.984127 58.349206 58.349206 0 0 0 46.984127 24.634921 38.095238 38.095238 0 0 0 15.68254-2.222222 571.428571 571.428571 0 0 0 107.428571-44.444445 54.222222 54.222222 0 0 0 26.857143-60.444444 97.904762 97.904762 0 0 1 26.857143-91.746032 99.619048 99.619048 0 0 1 91.746032-26.857143 60.634921 60.634921 0 0 0 60.444444-26.857143 496.31746 496.31746 0 0 0 44.444445-107.428571 56.253968 56.253968 0 0 0-22.349207-62.730159z m-78.349206 129.777778a167.809524 167.809524 0 0 0-192.444444 192.444444 485.52381 485.52381 0 0 1-78.349207 33.587302 168.952381 168.952381 0 0 0-273.015873 0 485.52381 485.52381 0 0 1-78.349206-33.587302 167.809524 167.809524 0 0 0-192.444444-192.444444 485.587302 485.587302 0 0 1-33.587302-78.349207 168.952381 168.952381 0 0 0 0-273.015873 485.587302 485.587302 0 0 1 33.587302-78.349206 167.809524 167.809524 0 0 0 192.444444-192.444444 485.460317 485.460317 0 0 1 78.349206-33.587302 168.952381 168.952381 0 0 0 273.015873 0 485.396825 485.396825 0 0 1 78.349207 33.587302 167.809524 167.809524 0 0 0 192.444444 192.444444 485.206349 485.206349 0 0 1 33.587302 78.349206 168.952381 168.952381 0 0 0 0 273.015873 485.206349 485.206349 0 0 1-33.714286 78.349207z" p-id="14592"></path></svg>